<svg xmlns="http://www.w3.org/2000/svg" xmlns:xlink="http://www.w3.org/1999/xlink" viewBox="0 0 688 688"><defs><clipPath id="clip-path"><circle cx="344" cy="344" r="229.49" fill="none"/></clipPath></defs><title>rockman6</title><g id="图层_2" data-name="图层 2"><g id="图层_1-2" data-name="图层 1"><rect width="688" height="688" opacity="0"/><circle cx="344" cy="344" r="229.6" fill="#969696"/><g clip-path="url(#clip-path)"><polygon points="239.35 184.34 126.39 593.33 153.25 593.33 265.92 184.34 239.35 184.34" fill="#fff"/><polygon points="289.75 184.34 177.08 593.33 207.96 593.33 320.92 184.34 289.75 184.34" fill="#fff"/><path d="M534.15,304.11l-68.43,0a61.54,61.54,0,0,1,.86,9.85,53.62,53.62,0,0,1-9.45,30.45l73.47.4a121.68,121.68,0,0,0,4-30.85C534.56,310.62,534.4,307.36,534.15,304.11Z" fill="#fff"/><path d="M338.13,435.14,432,593.33h32.54l-92.7-157.87,40.77.39c47.77,0,88.57-28.15,108.56-68.26H298.12Z" fill="#fff"/><path d="M457,281.1l73.33,0c-14.56-55.63-65.25-96.8-125.38-96.8H344.05l-17.18,68H405A61.57,61.57,0,0,1,457,281.1Z" fill="#fff"/><polygon points="287.42 394.74 276.05 434.55 366.7 593.33 405.3 593.33 311.25 434.88 287.42 394.74" fill="#fff"/></g></g></g></svg>