<svg xmlns="http://www.w3.org/2000/svg" viewBox="0 0 688 688"><title>rockman7</title><g id="图层_2" data-name="图层 2"><g id="图层_1-2" data-name="图层 1"><rect width="688" height="688" opacity="0"/><path d="M344,113.72c-127.18,0-230.27,103.1-230.27,230.27a229.37,229.37,0,0,0,55.85,150.34l79.78-288.86h24L188.43,513.76q8.39,7.69,17.52,14.55l88.93-322.84H323l-93.46,338.4A229.22,229.22,0,0,0,344,574.28c6.58,0,13.08-.29,19.52-.83l-81-141.9,10.27-36,21.53,36.26h0L395.43,568.5q10.56-2.41,20.73-5.78L338.6,432.07h0l-36.15-61H504c-18.06,36.23-54.92,61.67-98.08,61.67l-36.83-.35,71,120.94A230.3,230.3,0,0,0,574.27,344C574.27,216.82,471.18,113.72,344,113.72Zm55,153.17H328.43l15.52-61.41h55a117.29,117.29,0,0,1,113.28,87.46l-66.25,0A55.63,55.63,0,0,0,399,266.89Zm47.13,83.18a48.44,48.44,0,0,0,8.54-27.51,55.59,55.59,0,0,0-.78-8.9l61.82,0c.22,2.93.37,5.88.37,8.87a109.94,109.94,0,0,1-3.58,27.87Z" fill="#fbb03b"/></g></g></svg>