<svg xmlns="http://www.w3.org/2000/svg" xmlns:xlink="http://www.w3.org/1999/xlink" viewBox="0 0 688 688"><defs><linearGradient id="未命名的渐变_22" x1="343.92" y1="571.13" x2="343.92" y2="116.87" gradientUnits="userSpaceOnUse"><stop offset="0" stop-color="#1e2ad2"/><stop offset="0.12" stop-color="#3d3bce"/><stop offset="0.56" stop-color="#a474c2"/><stop offset="0.86" stop-color="#e698ba"/><stop offset="1" stop-color="#ffa6b7"/></linearGradient></defs><title>rockman5</title><g id="图层_2" data-name="图层 2"><g id="图层_1-2" data-name="图层 1"><rect width="688" height="688" opacity="0"/><circle cx="343.92" cy="344" r="227.13" fill="url(#未命名的渐变_22)"/><path d="M344.08,116.87C218.64,116.87,117,218.56,117,344a226.21,226.21,0,0,0,53.9,146.88l78.64-284.74h23.67L189.38,510.28q8.25,7.68,17.23,14.52L294.4,206.14h27.78L229.87,540.35a226.06,226.06,0,0,0,114.21,30.77c6.31,0,12.57-.27,18.75-.78L282.19,429.11l10.13-35.47,21.23,35.77h0l80.81,136.12q10.42-2.36,20.47-5.66L337.52,429.63h0l-35.66-60.19h198.8c-17.81,35.74-54.17,60.83-96.74,60.83l-36.33-.35,70.88,120.71A227.16,227.16,0,0,0,571.21,344C571.21,218.56,469.52,116.87,344.08,116.87Zm53,149.84H327.49l15.31-60.57h54.29A115.69,115.69,0,0,1,508.81,292.4l-65.34,0A54.87,54.87,0,0,0,397.08,266.71Zm46.48,82A47.78,47.78,0,0,0,452,321.62a54.83,54.83,0,0,0-.77-8.78l61,0c.22,2.89.36,5.8.36,8.75A108.43,108.43,0,0,1,509,349.11Z" fill="none"/><path d="M294.4,206.14,206.61,524.8a227.52,227.52,0,0,0,23.26,15.55l92.31-334.21Z" fill="#fff"/><path d="M249.49,206.14,170.85,490.88a228.48,228.48,0,0,0,18.53,19.4l83.78-304.14Z" fill="#fff"/><path d="M403.92,430.27c42.57,0,78.93-25.09,96.74-60.83H301.86l35.66,60.19h0l77.31,130.24a225.57,225.57,0,0,0,23.64-9.24L367.59,429.92Z" fill="#fff"/><path d="M512.2,312.87l-61,0a54.83,54.83,0,0,1,.77,8.78,47.78,47.78,0,0,1-8.42,27.13l65.47.36a108.43,108.43,0,0,0,3.53-27.49C512.56,318.68,512.42,315.77,512.2,312.87Z" fill="#fff"/><path d="M397.08,206.14H342.8l-15.31,60.57h69.59a54.87,54.87,0,0,1,46.38,25.65l65.34,0A115.69,115.69,0,0,0,397.08,206.14Z" fill="#fff"/><path d="M313.56,429.41l-21.23-35.77-10.13,35.47,80.64,141.24a226.76,226.76,0,0,0,31.53-4.82L313.56,429.41Z" fill="#fff"/></g></g></svg>