<svg xmlns="http://www.w3.org/2000/svg" xmlns:xlink="http://www.w3.org/1999/xlink" viewBox="0 0 688 688"><defs><linearGradient id="未命名的渐变_22" x1="343.87" y1="465.6" x2="343.87" y2="97.52" gradientUnits="userSpaceOnUse"><stop offset="0" stop-color="#1e2ad2"/><stop offset="0.12" stop-color="#3d3bce"/><stop offset="0.56" stop-color="#a474c2"/><stop offset="0.86" stop-color="#e698ba"/><stop offset="1" stop-color="#ffa6b7"/></linearGradient></defs><title>rockman3</title><g id="图层_2" data-name="图层 2"><g id="图层_1-2" data-name="图层 1"><rect width="688" height="688" opacity="0"/><circle cx="343.87" cy="281.56" r="184.04" fill="url(#未命名的渐变_22)"/><path d="M130.41,507.39a24.43,24.43,0,0,0-10.2-3.78,93.48,93.48,0,0,0-13-.82c-3.89,0-33.41.25-33.41.25L69,589H88.21l2.31-73.09s11.94-.13,13.19-.13a52.81,52.81,0,0,1,6.78.44,14,14,0,0,1,5.84,2,9.06,9.06,0,0,1,3.48,3.84,11.66,11.66,0,0,1,1,4.91,14.47,14.47,0,0,1-2.39,8,14.05,14.05,0,0,1-6.85,5.45,26.62,26.62,0,0,1-9.87,1.76,43.69,43.69,0,0,1-7.67-.76C95.42,544.3,116.15,589,116.15,589c5.08-.08,13.66-.08,18.78,0-1.67-3.23-19.48-39.41-19.48-39.41q4.65-1.26,7.41-2.14a26,26,0,0,0,4.93-2.11,22.1,22.1,0,0,0,4.37-3.34,21.6,21.6,0,0,0,3.8-4.91,24.07,24.07,0,0,0,2.42-6,26.87,26.87,0,0,0,.82-6.7,21.2,21.2,0,0,0-2.17-9.82A19.1,19.1,0,0,0,130.41,507.39Z" fill="#fff"/><path d="M208.58,532a30.27,30.27,0,0,0-11.24-6.42,44.15,44.15,0,0,0-13.85-2.17,42.94,42.94,0,0,0-15.07,2.71,31.24,31.24,0,0,0-12,7.62A30.81,30.81,0,0,0,149.56,545a39.78,39.78,0,0,0-2.2,13.22,35.7,35.7,0,0,0,2.42,13,28.2,28.2,0,0,0,7.07,10.58,29.94,29.94,0,0,0,11.21,6.52,43.8,43.8,0,0,0,13.85,2.17,44.57,44.57,0,0,0,14.79-2.42,28.81,28.81,0,0,0,11.59-7.3,33,33,0,0,0,7.1-11.55,39.89,39.89,0,0,0,2.45-13.85,36.24,36.24,0,0,0-2.32-12.94A26.77,26.77,0,0,0,208.58,532ZM197.84,567.1a16.56,16.56,0,0,1-6.26,8.06,17.18,17.18,0,0,1-9.67,2.74,16.21,16.21,0,0,1-9.3-2.64,14.94,14.94,0,0,1-5.63-6.93,26,26,0,0,1-1.72-9.76,31,31,0,0,1,2.1-11.52,16,16,0,0,1,6.38-8,18,18,0,0,1,9.73-2.68,16.42,16.42,0,0,1,9.36,2.58,14.15,14.15,0,0,1,5.48,6.86,26.59,26.59,0,0,1,1.63,9.51A31.75,31.75,0,0,1,197.84,567.1Z" fill="#fff"/><path d="M295,503c0,2.64-3.5,85.93-3.5,85.93,3.67-.08,17.92,0,17.92,0l3.5-85.93C309.33,503.13,299.34,503.13,295,503Z" fill="#fff"/><path d="M333.19,548.72l20.7-23.77q-6.34.13-10.47.13-3,0-9.54-.13-3.47,4.65-5.74,7.61t-3.91,5l-12.8,15.59q2.52,4,3,4.6L325.08,573q1.95,2.71,4.24,6.33t5.95,9.61q6-.13,10-.13T355,589q-20.89-28.42-25.48-35.73Z" fill="#fff"/><path d="M453.71,525.23a29.39,29.39,0,0,0-10.3-1.79,31.39,31.39,0,0,0-6.18.6,25.27,25.27,0,0,0-5.37,1.67,20.71,20.71,0,0,0-7.44,5.7,42.87,42.87,0,0,0-2.54,3.68,25.59,25.59,0,0,0-2.32-4.56,13.69,13.69,0,0,0-2.61-2.8,16.58,16.58,0,0,0-3.71-2.23,22.8,22.8,0,0,0-4.8-1.51,27.52,27.52,0,0,0-5.46-.53,29.21,29.21,0,0,0-7.32.91,23.42,23.42,0,0,0-6.19,2.49,18.34,18.34,0,0,0-4.3,3.43,46.36,46.36,0,0,0-3.67,4.82l.48-10.14c-3,.09-13.4.09-17,0,0,7.18-2.24,56.89-2.83,64,3.93-.08,14.08-.08,17.92,0,0-5.5,1.88-37.88,2.91-41.11a16.67,16.67,0,0,1,4.87-7.74,11.41,11.41,0,0,1,7.72-2.9,10.17,10.17,0,0,1,4.2.82A8.34,8.34,0,0,1,403,540.6a9.27,9.27,0,0,1,1.79,3.65,21.34,21.34,0,0,1,.44,4.69c0,3.48-1.77,36.81-2.07,40,3.86-.08,14.44-.08,17.92,0,0,0,.91-28.8,1.24-32.64a40.46,40.46,0,0,1,1.56-9,17.42,17.42,0,0,1,3-5.6,12.46,12.46,0,0,1,4.27-3.48,12,12,0,0,1,5.12-1.07,11.69,11.69,0,0,1,4.87,1,8.12,8.12,0,0,1,3.58,3.29q1.41,2.31,1.41,6.81c0,2.52-1.77,35.25-2.14,40.67,3.73-.08,14.8-.08,17.86,0,0-4.83,1.45-35.69,1.74-39.6s.43-6.86.43-8.88a16.11,16.11,0,0,0-2.76-9.6A15.84,15.84,0,0,0,453.71,525.23Z" fill="#fff"/><path d="M524.12,525a47.25,47.25,0,0,0-12.69-1.61,102,102,0,0,0-12.62.82,146,146,0,0,0-15.07,2.83q-.57,3.72-.79,5.54t-1.1,6.36q13.83-5.48,25.27-5.48a22.33,22.33,0,0,1,5.63.66,8.47,8.47,0,0,1,4.15,2.36,5.83,5.83,0,0,1,1.6,4.15,5.94,5.94,0,0,1-.54,2.46,7.51,7.51,0,0,1-1.67,2.3,9.18,9.18,0,0,1-2.67,1.79,30.4,30.4,0,0,1-4.12,1.42q-2.58.73-5,1.23a126,126,0,0,0-14.46,3.87,34.76,34.76,0,0,0-8.36,4A24.25,24.25,0,0,0,477,562a16.09,16.09,0,0,0-3.71,10.2,20.17,20.17,0,0,0,2.42,9.38,14.47,14.47,0,0,0,7.51,6.8,33.81,33.81,0,0,0,13,2.14q2.26,0,4.9-.19t7.1-.94a109.77,109.77,0,0,1,3.08-10.7,36.12,36.12,0,0,1-6,1.57,30.5,30.5,0,0,1-4.24.31,17.69,17.69,0,0,1-5.46-.76,8,8,0,0,1-3.86-2.67,7.07,7.07,0,0,1-1.54-4.56,7.79,7.79,0,0,1,.6-3.05,8.4,8.4,0,0,1,1.92-2.71,14.42,14.42,0,0,1,3.24-2.33,28.28,28.28,0,0,1,4.31-1.86q2.39-.82,6.35-1.92t5.53-1.64a22.62,22.62,0,0,0,2.83-1.16,39.3,39.3,0,0,0,3.65-2.2l-.83,15.68q-.51,10-1.33,17.63,5.15-.13,9-.13,4,0,8.8.13.19-15.68,1.19-30.37t1-18.29q0-6.61-3.27-10.14A18.86,18.86,0,0,0,524.12,525Z" fill="#fff"/><path d="M618,536.09a15,15,0,0,0-4.15-6.74,18.63,18.63,0,0,0-8.26-4.5,40,40,0,0,0-10.71-1.42,39.12,39.12,0,0,0-6.75.57,34.73,34.73,0,0,0-5.84,1.51,21.7,21.7,0,0,0-4.9,2.52,21.33,21.33,0,0,0-3.77,3.21,48.11,48.11,0,0,0-3.42,4.41l.7-10.7c-3.06.09-14.07.09-17.92,0-.08,9.4-3.5,64-3.5,64h18.37s.59-18.11,1-24.11q.69-10.13,2.13-14.54a19.78,19.78,0,0,1,3.89-7,15.89,15.89,0,0,1,5.65-4.22,17.15,17.15,0,0,1,7-1.45,16.33,16.33,0,0,1,7.12,1.57,10.29,10.29,0,0,1,4.86,4.6,17.39,17.39,0,0,1,1.57,8c0,2.94-1.68,33.49-2,37.14,3.23-.08,14.8-.08,18.12,0,0-4.32,1.61-39.72,1.61-39.72q.19-3.71.19-5.41A29.12,29.12,0,0,0,618,536.09Z" fill="#fff"/><path d="M261.06,523.44a49.78,49.78,0,0,0-13.35,1.67,25.82,25.82,0,0,0-10.9,6.3,29.34,29.34,0,0,0-7.44,11.93,46,46,0,0,0-2.54,15.23,43.87,43.87,0,0,0,1.54,11.62,27.1,27.1,0,0,0,4.62,9.6,25.65,25.65,0,0,0,7.13,6.39,27.44,27.44,0,0,0,8.76,3.37,49.73,49.73,0,0,0,9.8.94,91.84,91.84,0,0,0,19.1-1.95c.15-3.69.36-8.53.59-14a51.83,51.83,0,0,1-8.27,2.26,40,40,0,0,1-6.87.72,21.61,21.61,0,0,1-10.28-2.39,13.47,13.47,0,0,1-6.36-6.77A26.48,26.48,0,0,1,244.72,558a30.57,30.57,0,0,1,1.16-8.37,18.42,18.42,0,0,1,3.89-7.21,16.27,16.27,0,0,1,6.52-4.56,22.43,22.43,0,0,1,8.06-1.45c4.62,0,9.27,1,15.46,3.08.19-4.69.37-9.15.53-13.11a103.14,103.14,0,0,0-10.87-2.47A78.12,78.12,0,0,0,261.06,523.44Z" fill="#fff"/><path d="M344,97.52A184,184,0,0,0,203.63,400.57l63.72-230.73h19.18L218.65,416.29q6.68,6.22,14,11.77l71.13-258.21h22.51l-74.8,270.82A183.18,183.18,0,0,0,344,465.6c5.12,0,10.18-.22,15.19-.63L293.85,350.52l8.21-28.74,17.2,29h0l65.48,110.3q8.45-1.91,16.58-4.58L338.68,350.95h0l-28.9-48.78H470.88c-14.43,29-43.9,49.29-78.39,49.29l-29.44-.28L420.49,449A184.07,184.07,0,0,0,344,97.52Zm42.95,121.42H330.56L343,169.85h44a93.74,93.74,0,0,1,90.53,69.9l-52.95,0A44.46,44.46,0,0,0,386.95,218.93Zm37.67,66.48a38.72,38.72,0,0,0,6.83-22,44.43,44.43,0,0,0-.62-7.11l49.41,0c.18,2.34.3,4.7.3,7.09a87.86,87.86,0,0,1-2.86,22.27Z" fill="none"/><path d="M303.74,169.85,232.61,428.06a184.36,184.36,0,0,0,18.85,12.6l74.8-270.82Z" fill="#fff"/><path d="M267.35,169.85,203.63,400.57a185.14,185.14,0,0,0,15,15.72l67.89-246.44Z" fill="#fff"/><path d="M392.49,351.46c34.49,0,64-20.33,78.39-49.29H309.79l28.9,48.78h0l62.65,105.53A182.78,182.78,0,0,0,420.49,449l-57.44-97.81Z" fill="#fff"/><path d="M480.23,256.34l-49.41,0a44.43,44.43,0,0,1,.62,7.11,38.72,38.72,0,0,1-6.83,22l53,.29a87.86,87.86,0,0,0,2.86-22.27C480.53,261,480.41,258.68,480.23,256.34Z" fill="#fff"/><path d="M386.95,169.85H343l-12.4,49.08h56.39a44.46,44.46,0,0,1,37.59,20.79l52.95,0A93.74,93.74,0,0,0,386.95,169.85Z" fill="#fff"/><path d="M319.27,350.76l-17.2-29-8.21,28.74L359.19,465a183.74,183.74,0,0,0,25.55-3.91l-65.48-110.3Z" fill="#fff"/></g></g></svg>