<svg xmlns="http://www.w3.org/2000/svg" viewBox="0 0 688 688"><title>rockman1</title><g id="图层_2" data-name="图层 2"><g id="图层_1-2" data-name="图层 1"><rect width="688" height="688" opacity="0"/><path d="M69,589,73.76,503s29.52-.25,33.41-.25a93.48,93.48,0,0,1,13,.82,24.43,24.43,0,0,1,10.2,3.78,19.1,19.1,0,0,1,6.63,7.18,21.2,21.2,0,0,1,2.17,9.82,26.87,26.87,0,0,1-.82,6.7,24.07,24.07,0,0,1-2.42,6,21.6,21.6,0,0,1-3.8,4.91,22.1,22.1,0,0,1-4.37,3.34,26,26,0,0,1-4.93,2.11q-2.77.88-7.41,2.14s17.81,36.18,19.48,39.41c-5.12-.08-13.7-.08-18.78,0,0,0-20.74-44.68-22.07-47.53a43.69,43.69,0,0,0,7.67.76,26.62,26.62,0,0,0,9.87-1.76,14.05,14.05,0,0,0,6.85-5.45,14.47,14.47,0,0,0,2.39-8,11.66,11.66,0,0,0-1-4.91,9.06,9.06,0,0,0-3.48-3.84,14,14,0,0,0-5.84-2,52.82,52.82,0,0,0-6.78-.44c-1.26,0-13.19.13-13.19.13L88.21,589Z" fill="#fbb03b"/><path d="M183.48,523.44a44.15,44.15,0,0,1,13.85,2.17A30.27,30.27,0,0,1,208.58,532a26.77,26.77,0,0,1,6.94,10.39,36.25,36.25,0,0,1,2.32,12.94,39.89,39.89,0,0,1-2.45,13.85,33,33,0,0,1-7.1,11.55,28.81,28.81,0,0,1-11.59,7.3,44.57,44.57,0,0,1-14.79,2.42,43.8,43.8,0,0,1-13.85-2.17,29.94,29.94,0,0,1-11.21-6.52,28.2,28.2,0,0,1-7.07-10.58,35.7,35.7,0,0,1-2.42-13,39.78,39.78,0,0,1,2.2-13.22,30.81,30.81,0,0,1,6.88-11.21,31.24,31.24,0,0,1,12-7.62A42.94,42.94,0,0,1,183.48,523.44Zm0,13a18,18,0,0,0-9.73,2.68,16,16,0,0,0-6.38,8,31,31,0,0,0-2.1,11.52,26,26,0,0,0,1.72,9.76,14.94,14.94,0,0,0,5.63,6.93,16.21,16.21,0,0,0,9.3,2.64,17.18,17.18,0,0,0,9.67-2.74,16.56,16.56,0,0,0,6.26-8.06,31.74,31.74,0,0,0,2.1-11.74,26.59,26.59,0,0,0-1.63-9.51,14.15,14.15,0,0,0-5.48-6.86A16.42,16.42,0,0,0,183.48,536.41Z" fill="#fbb03b"/><path d="M291.46,589S295,505.69,295,503c4.38.09,14.37.09,17.92,0L309.37,589S295.13,588.89,291.46,589Zm20-35.85,12.8-15.59q1.64-2,3.91-5t5.74-7.61q6.52.13,9.54.13,4.14,0,10.47-.13l-20.7,23.77-3.71,4.53Q334.07,560.56,355,589q-5.66-.13-9.69-.13t-10,.13q-3.65-6-5.95-9.61T325.08,573l-10.7-15.31Q313.95,557.09,311.43,553.12Z" fill="#fbb03b"/><path d="M362.18,589c.59-7.13,2.83-56.85,2.83-64,3.56.09,14,.09,17,0l-.48,10.14a46.36,46.36,0,0,1,3.67-4.82,18.34,18.34,0,0,1,4.3-3.43,23.42,23.42,0,0,1,6.19-2.49,29.21,29.21,0,0,1,7.32-.91,27.52,27.52,0,0,1,5.46.53,22.79,22.79,0,0,1,4.8,1.51,16.58,16.58,0,0,1,3.71,2.23,13.69,13.69,0,0,1,2.61,2.8,25.6,25.6,0,0,1,2.32,4.56,42.88,42.88,0,0,1,2.54-3.68,20.71,20.71,0,0,1,7.44-5.7,25.28,25.28,0,0,1,5.37-1.67,31.4,31.4,0,0,1,6.18-.6,29.39,29.39,0,0,1,10.3,1.79,15.84,15.84,0,0,1,7.6,5.67,16.11,16.11,0,0,1,2.76,9.6q0,3-.43,8.88c-.29,3.9-1.7,34.77-1.74,39.6-3.06-.08-14.13-.08-17.86,0,.38-5.41,2.14-38.15,2.14-40.67q0-4.5-1.41-6.81a8.12,8.12,0,0,0-3.58-3.29,11.69,11.69,0,0,0-4.87-1,12,12,0,0,0-5.12,1.07,12.46,12.46,0,0,0-4.27,3.48,17.42,17.42,0,0,0-3,5.6,40.45,40.45,0,0,0-1.56,9c-.33,3.84-1.24,32.64-1.24,32.64-3.48-.08-14.07-.08-17.92,0,.29-3.23,2.07-36.55,2.07-40a21.35,21.35,0,0,0-.44-4.69A9.27,9.27,0,0,0,403,540.6,8.34,8.34,0,0,0,399.8,538a10.17,10.17,0,0,0-4.2-.82,11.41,11.41,0,0,0-7.72,2.9,16.67,16.67,0,0,0-4.87,7.74c-1,3.23-2.91,35.61-2.91,41.11C376.26,588.89,366.11,588.89,362.18,589Z" fill="#fbb03b"/><path d="M481.84,539q.88-4.53,1.1-6.36t.79-5.54a146,146,0,0,1,15.07-2.83,102,102,0,0,1,12.62-.82A47.25,47.25,0,0,1,524.12,525a18.86,18.86,0,0,1,9,5.13q3.27,3.53,3.27,10.14,0,3.59-1,18.29T534.24,589q-4.78-.13-8.8-.13-3.84,0-9,.13.82-7.62,1.33-17.63l.83-15.68a39.3,39.3,0,0,1-3.65,2.2,22.62,22.62,0,0,1-2.83,1.16q-1.57.54-5.53,1.64t-6.35,1.92a28.29,28.29,0,0,0-4.31,1.86,14.42,14.42,0,0,0-3.24,2.33,8.4,8.4,0,0,0-1.92,2.71,7.79,7.79,0,0,0-.6,3.05,7.07,7.07,0,0,0,1.54,4.56,8,8,0,0,0,3.86,2.67,17.69,17.69,0,0,0,5.46.76,30.5,30.5,0,0,0,4.24-.31,36.12,36.12,0,0,0,6-1.57,109.77,109.77,0,0,0-3.08,10.7q-4.46.75-7.1.94t-4.9.19a33.81,33.81,0,0,1-13-2.14,14.47,14.47,0,0,1-7.51-6.8,20.17,20.17,0,0,1-2.42-9.38A16.09,16.09,0,0,1,477,562a24.25,24.25,0,0,1,4.71-4.25,34.76,34.76,0,0,1,8.36-4,126,126,0,0,1,14.46-3.87q2.39-.5,5-1.23a30.4,30.4,0,0,0,4.12-1.42,9.18,9.18,0,0,0,2.67-1.79,7.51,7.51,0,0,0,1.67-2.3,5.94,5.94,0,0,0,.54-2.46,5.83,5.83,0,0,0-1.6-4.15,8.47,8.47,0,0,0-4.15-2.36,22.33,22.33,0,0,0-5.63-.66Q495.67,533.51,481.84,539Z" fill="#fbb03b"/><path d="M549.49,589s3.41-54.62,3.5-64c3.86.09,14.86.09,17.92,0l-.7,10.7a48.12,48.12,0,0,1,3.42-4.41,21.33,21.33,0,0,1,3.77-3.21,21.7,21.7,0,0,1,4.9-2.52,34.73,34.73,0,0,1,5.84-1.51,39.12,39.12,0,0,1,6.75-.57,40,40,0,0,1,10.71,1.42,18.63,18.63,0,0,1,8.26,4.5,15,15,0,0,1,4.15,6.74,29.12,29.12,0,0,1,1,7.74q0,1.7-.19,5.41s-1.57,35.4-1.61,39.72c-3.31-.08-14.89-.08-18.12,0,.34-3.65,2-34.21,2-37.14a17.39,17.39,0,0,0-1.57-8,10.29,10.29,0,0,0-4.86-4.6,16.34,16.34,0,0,0-7.12-1.57,17.15,17.15,0,0,0-7,1.45,15.89,15.89,0,0,0-5.65,4.22,19.78,19.78,0,0,0-3.89,7q-1.45,4.41-2.13,14.54c-.42,6-1,24.11-1,24.11Z" fill="#fbb03b"/><path d="M278.35,574.53a51.83,51.83,0,0,1-8.27,2.26,40,40,0,0,1-6.87.72,21.61,21.61,0,0,1-10.28-2.39,13.47,13.47,0,0,1-6.36-6.77A26.48,26.48,0,0,1,244.72,558a30.57,30.57,0,0,1,1.16-8.37,18.42,18.42,0,0,1,3.89-7.21,16.27,16.27,0,0,1,6.52-4.56,22.43,22.43,0,0,1,8.06-1.45c4.62,0,9.27,1,15.46,3.08.19-4.69.37-9.15.53-13.11a103.14,103.14,0,0,0-10.87-2.47,78.12,78.12,0,0,0-8.42-.47,49.78,49.78,0,0,0-13.35,1.67,25.82,25.82,0,0,0-10.9,6.3,29.34,29.34,0,0,0-7.44,11.93,46,46,0,0,0-2.54,15.23,43.87,43.87,0,0,0,1.54,11.62,27.1,27.1,0,0,0,4.62,9.6,25.65,25.65,0,0,0,7.13,6.39,27.44,27.44,0,0,0,8.76,3.37,49.73,49.73,0,0,0,9.8.94,91.84,91.84,0,0,0,19.1-1.95C277.92,584.85,278.13,580,278.35,574.53Z" fill="#fbb03b"/><path d="M343.93,97.52a184,184,0,0,0-139.41,304.2l63.76-230.86h19.18L219.59,417.24q6.71,6.15,14,11.63l71.08-258h22.51l-74.7,270.46a183.2,183.2,0,0,0,91.44,24.29c5.26,0,10.46-.23,15.6-.66L294.79,351.52,303,322.78l17.2,29h0L385,461q8.44-1.93,16.57-4.62l-62-104.42h0l-28.9-48.78H471.81c-14.43,29-43.9,49.29-78.39,49.29L364,352.18l56.76,96.66A184.07,184.07,0,0,0,343.93,97.52Zm43.95,122.42H331.49l12.4-49.08h44a93.74,93.74,0,0,1,90.53,69.9l-52.95,0A44.46,44.46,0,0,0,387.88,219.93Zm37.67,66.48a38.72,38.72,0,0,0,6.83-22,44.43,44.43,0,0,0-.62-7.11l49.41,0c.18,2.34.3,4.7.3,7.09a87.86,87.86,0,0,1-2.86,22.27Z" fill="#fbb03b"/></g></g></svg>